<svg width="572" height="288" xmlns="http://www.w3.org/2000/svg" xmlns:xlink="http://www.w3.org/1999/xlink" xml:space="preserve" overflow="hidden"><defs><clipPath id="clip0"><rect x="1719" y="711" width="572" height="288"/></clipPath></defs><g clip-path="url(#clip0)" transform="translate(-1719 -711)"><path d="M1975.71 798.071 2000.23 798.071 2002.46 800.677 2005.24 804.441 2008.86 809.073 2011.65 812.837 2015.27 817.469 2018.05 821.233 2021.68 825.866 2024.46 829.629 2028.08 834.262 2030.87 838.026 2033.93 842.079 2037.55 846.712 2041.18 851.634 2044.8 856.266 2047.86 860.32 2051.48 864.952 2054.27 868.716 2057.89 873.348 2060.67 877.112 2063.74 881.166 2067.36 885.798 2070.15 889.562 2073.77 894.194 2077.39 899.116 2081.29 904.038 2084.07 907.802 2087.69 912.435 2089.92 915.33 2089.64 818.048 2088.53 810.81 2086.58 803.862 2084.63 798.65 2084.63 798.071 2114.44 798.071 2113.88 799.808 2111.65 805.888 2109.98 812.837 2109.14 820.365 2109.14 915.04 2109.7 921.12 2111.09 928.359 2112.76 934.149 2114.44 938.492 2114.44 939.071 2080.73 939.071 2077.67 935.307 2074.6 931.254 2072.1 928.069 2068.47 923.437 2065.41 919.383 2061.79 914.751 2059.56 911.856 2056.5 907.802 2052.87 903.17 2050.65 900.274 2047.02 895.642 2043.96 891.589 2040.34 886.956 2037.28 882.903 2033.38 877.981 2030.31 873.927 2026.69 869.295 2023.63 865.242 2021.12 862.057 2016.66 856.266 2013.04 851.634 2009.98 847.58 2006.36 842.948 2003.29 838.895 1999.95 834.552 1999.67 834.552 1999.67 911.566 1999.95 919.963 2001.06 926.621 2003.01 933.57 2004.68 938.203 2004.68 939.071 1975.44 939.071 1975.99 937.334 1977.94 931.833 1979.34 926.621 1980.17 921.7 1980.45 918.515 1980.45 819.786 1979.61 812.837 1978.22 806.467 1975.99 799.808 1975.44 798.361Z" fill="#4472C4" fill-rule="evenodd"/><path d="M1815.16 741.024 1819.88 741.024 1821.55 743.339 1821.83 744.207 1821.83 746.522 1819.88 749.705 1819.61 750.863 1819.61 804.684 1819.88 805.552 1839.05 805.842 1839.05 920.139 1840.16 920.139 1841 917.535 1844.33 910.012 1848.22 900.752 1848.22 899.305 1847.11 897.569 1846.55 895.544 1846.83 893.229 1848.22 890.914 1849.61 889.756 1851 889.178 1855.72 888.599 1857.94 884.259 1860.72 881.076 1864.05 878.471 1867.94 875.867 1870.16 873.841 1870.72 873.841 1870.72 873.263 1869.33 872.684 1866.55 870.948 1863.5 870.369 1863.22 870.08 1862.66 866.608 1861.27 864.293 1859.33 863.135 1859.33 857.348 1859.61 854.165 1873.5 853.876 1874.33 853.007 1874.61 848.667 1875.72 846.642 1876 845.484 1876 842.591 1874.61 838.25 1872.94 833.62 1871 825.807 1869.61 818.284 1869.33 816.259 1869.33 811.339 1870.16 807.867 1871.55 804.973 1873.77 802.658 1876.55 801.212 1879.05 800.633 1884.05 800.633 1889.05 801.79 1894.88 803.816 1901.83 807.288 1906.55 810.182 1911.83 813.944 1917.66 818.573 1920.72 820.599 1923.5 821.467 1941.83 821.467 1947.94 821.756 1947.38 826.386 1945.44 837.671 1944.88 840.565 1944.88 844.037 1946 846.931 1948.5 850.114 1951.83 854.454 1954.88 859.373 1958.22 865.45 1961.27 872.105 1965.16 882.233 1965.16 892.071 1963.22 895.544 1961.27 897.569 1958.5 899.305 1954.61 900.463 1952.38 900.752 1948.22 900.752 1941.83 899.884 1936.55 898.437 1930.72 896.122 1924.33 892.939 1919.61 890.046 1918.5 889.178 1916.83 888.888 1902.66 888.599 1902.94 893.518 1904.05 895.833 1906.55 899.305 1909.88 903.646 1912.38 907.407 1914.88 912.037 1916.27 914.352 1916.27 914.931 1912.11 916.378 1912.38 916.667 1918.77 916.956 1921 918.114 1922.94 919.85 1927.11 926.216 1930.44 931.135 1937.66 941.552 1939.88 944.735 1939.88 945.025 1790.16 945.025 1790.16 934.318 1814.33 934.318 1814.05 813.944 1811 818.573 1807.11 824.361 1806 823.782 1806.27 820.888 1807.66 814.233 1808.5 807.867 1808.77 804.105 1808.77 796.582 1807.94 789.637 1806.27 782.982 1804.33 777.773 1804.33 777.195 1806 776.616 1808.5 779.799 1812.11 785.007 1814.33 787.901 1814.33 749.995 1812.94 746.522 1812.94 743.918 1814.61 741.314ZM1879.61 802.658 1876.83 803.527 1874.61 805.263 1873.22 808.156 1872.94 809.603 1872.94 811.629 1874.05 816.548 1876.55 824.071 1879.05 829.859 1882.11 835.935 1886.27 842.591 1889.88 847.51 1892.38 850.693 1896 855.033 1901 860.82 1910.72 870.948 1912.94 872.974 1916.55 876.156 1921.27 879.918 1926 883.39 1931.27 886.863 1936.27 889.756 1940.72 892.071 1946.55 894.676 1950.44 895.833 1951.83 896.122 1958.22 896.122 1961 894.676 1962.66 892.65 1963.22 890.625 1963.22 887.731 1961.83 881.654 1959.88 875.578 1956.83 868.344 1953.77 862.556 1949.88 856.48 1946.83 852.429 1943.5 848.378 1942.94 848.956 1941.55 854.454 1937.66 872.974 1936.27 878.471 1935.16 880.786 1934.61 881.076 1932.66 881.076 1929.88 879.05 1927.66 877.025 1925.44 873.841 1925.44 872.974 1926.83 873.263 1931.55 876.735 1932.11 875.578 1936.27 857.348 1938.77 847.51 1939.05 844.327 1937.94 841.433 1936.55 839.697 1935.16 838.829 1932.94 842.012 1931.83 843.748 1929.61 842.012 1926.83 839.407 1926 838.829 1932.66 835.356 1931 833.331 1926.55 828.99 1924.05 827.254 1922.11 826.676 1915.72 826.097 1908.5 826.097 1899.33 826.386 1899.05 827.254 1899.88 830.727 1899.88 831.595 1898.77 831.884 1894.05 822.046 1915.16 822.046 1916.27 821.467 1913.5 818.863 1909.61 815.68 1905.44 812.497 1901.27 809.893 1896.55 807.288 1891 804.973 1884.05 802.948 1882.38 802.658ZM1821 810.182 1821.27 811.629 1825.72 819.441 1826.27 820.599 1826.83 820.599 1831.55 812.497 1832.66 810.761 1832.66 810.182ZM1819.61 814.522 1819.61 831.595 1820.16 831.595 1822.94 826.965 1824.61 823.782 1824.61 821.756 1823.5 819.441 1819.88 814.522ZM1833.5 814.522 1831.83 816.548 1830.16 819.441 1829.05 822.625 1829.05 825.518 1830.16 828.122 1831.83 830.148 1833.77 831.305 1833.77 814.522ZM1902.94 824.071 1902.94 824.939 1944.88 825.229 1942.11 828.122 1939.88 830.148 1936.27 833.91 1934.05 835.935 1933.5 837.092 1934.61 836.803 1939.33 833.041 1942.66 830.437 1944.33 830.148 1939.88 848.667 1933.5 874.999 1932.94 877.603 1934.88 878.182 1937.11 868.633 1942.38 844.327 1946.27 826.386 1946.55 824.071ZM1826.27 825.807 1822.38 832.463 1821.27 834.488 1832.11 834.488 1829.88 830.437 1826.83 825.807ZM1930.72 826.386 1927.38 826.676 1929.05 828.701 1932.38 831.884 1934.33 833.331 1937.38 830.437 1939.61 828.412 1941.55 826.676 1941.55 826.386ZM1822.11 837.092 1821 837.671 1823.77 842.301 1826.27 846.063 1827.11 845.773 1830.16 840.565 1832.11 837.382 1832.11 837.092ZM1833.5 839.986 1830.44 844.037 1828.77 846.931 1828.5 847.51 1828.5 849.824 1830.44 853.586 1833.22 857.927 1833.77 858.505 1833.77 839.986ZM1819.61 841.433 1819.61 856.769 1821 855.322 1822.94 852.718 1824.05 849.824 1824.05 846.931 1822.94 844.616 1821 842.301ZM1826 851.561 1821.83 858.505 1821 859.663 1821 860.242 1831.83 860.242 1827.94 853.876 1826.27 851.561ZM1884.05 856.19 1884.61 860.531 1885.72 864.871 1887.38 869.212 1889.61 873.263 1892.66 877.314 1895.16 879.918 1899.05 882.812 1903.5 885.127 1907.94 886.284 1914.05 886.284 1912.66 884.837 1908.77 881.944 1904.88 878.761 1901.27 875.578 1897.66 872.105 1896 870.659 1894.05 868.344 1890.16 864.003 1887.94 861.109 1884.33 856.19ZM1821.27 863.135 1823.22 866.608 1826.55 871.816 1827.94 870.369 1832.11 863.714 1832.11 863.135ZM1866.83 864.293 1866.27 864.582 1866.27 866.897 1867.94 868.054 1870.72 869.501 1872.38 870.948 1873.5 872.684 1873.77 875.288 1872.94 877.025 1870.72 878.471 1867.11 879.629 1866.55 879.918 1866.55 880.497 1887.94 880.497 1886.83 878.471 1882.94 872.974 1880.16 868.922 1877.66 865.45 1876.55 864.582 1874.05 864.293ZM1819.61 866.318 1819.61 881.654 1821.55 879.918 1823.77 876.735 1824.33 875.288 1824.33 872.974 1822.94 870.08 1819.88 866.318ZM1833.5 866.318 1830.72 870.08 1829.05 873.552 1828.77 875.578 1829.61 878.182 1831.55 880.786 1833.5 882.812 1834.05 882.812 1834.05 866.897ZM1826.27 876.735 1823.22 881.076 1820.72 884.837 1820.72 885.416 1832.11 885.416 1830.16 882.233 1826.55 876.735ZM1862.66 883.68 1862.66 884.837 1875.44 885.705 1887.66 885.705 1890.16 885.416 1890.72 885.127 1890.72 883.68ZM1821 888.31 1821.27 889.467 1826.55 897.569 1827.38 897.28 1832.66 888.888 1832.66 888.599ZM1819.61 892.65 1819.61 907.986 1821.83 906.25 1823.77 903.646 1824.33 902.199 1824.33 899.884 1823.22 896.991 1821 893.807 1820.16 892.65ZM1833.5 892.65 1830.72 895.833 1829.05 898.727 1828.77 901.331 1829.88 904.514 1832.66 908.276 1833.77 909.144 1833.77 892.65ZM1854.05 899.016 1852.38 899.884 1848.77 908.565 1844.61 918.982 1844.88 920.139 1848.77 917.535 1855.16 912.905 1861.27 908.565 1866.83 904.514 1872.11 900.752 1873.22 899.884 1873.22 899.016ZM1877.94 899.305 1875.16 901.91 1872.11 904.514 1868.5 907.697 1865.44 910.301 1863.5 912.037 1863.5 912.327 1881.27 912.327 1881 910.012 1878.5 899.595ZM1886.83 899.305 1888.5 901.62 1892.38 906.829 1895.16 910.59 1898.22 914.642 1902.11 919.85 1903.77 922.165 1904.61 922.454 1904.61 919.271 1903.22 900.752 1902.94 899.305ZM1881.83 900.463 1882.11 903.356 1883.77 912.037 1884.05 912.616 1885.44 912.616 1885.16 909.722 1883.22 901.042 1882.94 900.463ZM1826.27 903.067 1822.11 909.433 1820.72 911.458 1820.72 912.037 1831.83 912.037 1831.27 910.59 1828.5 905.961 1826.55 903.067ZM1906.83 905.382 1907.38 910.59 1908.5 912.327 1909.05 912.616 1911.83 912.616 1911.27 911.169 1907.94 905.961ZM1887.66 905.961 1887.66 909.722 1888.5 911.748 1889.88 912.616 1892.11 912.905 1891.55 911.458 1889.33 907.986 1887.94 905.961ZM1819.61 914.931 1819.61 934.029 1833.22 934.029 1833.22 914.931ZM1915.16 918.982 1910.72 921.008 1910.16 921.586 1909.88 924.48 1909.88 932.003 1910.16 934.029 1915.72 934.029 1915.72 918.982ZM1860.16 919.85 1856 920.429 1852.66 921.586 1849.33 923.612 1845.72 926.795 1841.83 930.267 1839.88 932.293 1839.33 933.161 1839.33 934.029 1885.72 934.029 1885.72 931.135 1884.88 925.059 1883.77 922.165 1882.11 920.718 1880.44 920.139 1878.5 919.85ZM1894.05 919.561 1890.16 920.429 1890.72 923.322 1893.22 934.029 1895.44 934.318 1901.83 934.318 1906.83 934.029 1906.27 932.582 1902.66 927.374 1899.33 922.454 1897.94 920.718 1895.72 919.561ZM1918.77 921.008 1918.77 926.216 1919.33 934.029 1922.94 934.318 1929.33 934.029 1927.66 931.714 1924.61 927.663 1921.55 923.901 1919.33 921.008ZM1795.44 938.659 1793.22 940.395 1793.22 941.263 1793.77 941.552 1931 941.552 1931 939.816 1930.16 938.659Z" fill="#4472C4" fill-rule="evenodd"/><path d="M2124.97 798.071 2243.41 798.071 2243.69 798.362 2243.69 820.701 2242.57 820.121 2238.93 817.8 2235.01 815.769 2231.37 814.608 2228.01 814.028 2194.41 813.738 2194.69 922.534 2195.53 928.627 2197.21 933.559 2199.45 937.911 2199.73 939.072 2165.01 939.072 2165.29 937.911 2167.81 932.399 2169.21 927.177 2169.77 922.825 2169.77 814.028 2137.85 814.028 2134.21 814.899 2129.73 817.22 2126.37 819.831 2124.97 820.701 2124.69 810.547Z" fill="#4472C4" fill-rule="evenodd"/><path d="M1855.44 711 1868.84 711 1878.33 711.87 1888.1 713.32 1895.92 715.06 1904.29 717.38 1913.22 720.57 1921.31 724.05 1927.18 726.95 1933.32 730.43 1938.9 733.91 1945.04 738.26 1949.51 741.74 1952.3 744.06 1955.93 747.25 1961.51 752.47 1966.25 757.4 1968.21 759.72 1970.72 762.62 1973.23 765.81 1977.14 771.03 1980.77 776.54 1983.84 781.47 1985.23 783.79 1985.23 784.66 1979.09 788.43 1977.98 787.27 1974.35 781.18 1971 776.25 1968.21 772.48 1964.58 767.84 1961.79 764.65 1959.83 762.33 1953.69 755.95 1951.46 753.92 1947.55 750.44 1941.97 746.09 1937.22 742.61 1931.92 739.13 1924.94 735.07 1918.8 731.88 1910.15 728.11 1900.94 724.92 1892.29 722.6 1883.91 720.86 1874.98 719.7 1871.07 719.41 1852.65 719.41 1844 720.28 1834.23 722.02 1826.97 723.76 1817.76 726.66 1809.67 729.85 1802.97 733.04 1796.83 736.23 1789.29 740.87 1785.94 743.19 1781.2 746.67 1777.29 749.86 1773.66 753.05 1768.08 758.27 1762.5 764.07 1760.54 766.39 1757.19 770.45 1754.12 774.51 1750.49 779.73 1746.87 785.53 1742.96 792.49 1740.72 796.84 1736.82 805.83 1733.19 816.27 1730.68 825.55 1729 833.96 1727.89 841.79 1727.05 852.81 1727.05 862.96 1727.61 871.66 1729 882.39 1731.23 892.83 1733.47 900.66 1735.98 908.2 1739.61 916.9 1743.52 925.02 1747.7 932.27 1750.49 936.62 1753.28 940.68 1756.08 944.45 1759.15 948.22 1761.1 950.54 1763.61 953.44 1770.87 960.98 1773.94 963.59 1776.45 965.91 1775.61 967.36 1771.99 972 1770.59 971.42 1767.8 968.81 1765.57 966.78 1762.78 964.17 1756.63 957.79 1754.68 955.47 1751.05 951.12 1747.42 946.19 1744.35 941.84 1740.17 935.17 1737.1 929.66 1733.47 922.7 1729.84 914.29 1726.77 905.88 1724.26 897.47 1722.3 889.35 1720.91 881.52 1719.79 872.53 1719.23 866.15 1719.23 849.91 1720.35 838.31 1721.74 829.61 1724.26 818.59 1726.49 811.34 1729 804.09 1731.79 797.42 1734.86 790.75 1738.49 784.08 1741.56 778.86 1745.19 773.35 1748.54 768.71 1752.17 764.07 1755.52 760.01 1759.98 755.08 1764.17 750.73 1766.4 748.7 1769.19 746.09 1772.27 743.48 1777.29 739.42 1786.5 733.04 1791.8 729.85 1798.5 726.08 1805.2 722.89 1813.85 719.41 1821.67 716.8 1831.72 714.19 1839.53 712.74 1848.46 711.58Z" fill="#4472C4" fill-rule="evenodd"/><path d="M2251.88 798.071 2285.88 798.071 2285.61 799.522 2283.16 806.195 2281.53 812.287 2280.99 815.769 2280.99 923.695 2282.08 929.498 2283.98 935.01 2285.88 938.492 2285.88 939.072 2251.88 939.072 2252.43 937.621 2254.6 932.689 2255.96 928.337 2256.78 923.695 2257.05 918.763 2257.05 819.831 2256.51 812.578 2255.15 806.485 2253.24 801.553 2251.88 798.652Z" fill="#4472C4" fill-rule="evenodd"/><path d="M1971.32 941.187 1973.26 942.339 1976.87 945.219 1977.43 945.507 1976.87 946.659 1974.65 949.828 1971.59 953.571 1969.09 956.739 1964.65 961.635 1960.48 965.956 1958.26 967.972 1955.48 970.563 1952.43 973.156 1947.43 977.188 1946.59 977.188 1943.26 972.292 1942.43 970.851 1946.04 967.972 1949.09 965.38 1952.98 961.924 1957.15 957.892 1961.87 952.995 1963.82 950.691 1967.15 946.659 1970.76 941.763Z" fill="#4472C4" fill-rule="evenodd"/><path d="M1743.04 972.219 1746.42 972.219 1748.39 975.174 1752.04 981.674 1755.7 987.878 1757.95 992.31 1757.95 972.515 1759.07 972.219 1760.76 972.219 1761.04 972.515 1761.04 998.219 1757.67 998.219 1753.45 991.128 1749.23 983.742 1746.42 978.424 1746.14 977.833 1745.85 998.219 1743.04 998.219Z" fill="#4472C4" fill-rule="evenodd"/><path d="M2003.03 979.226 2006.72 979.226 2008.42 980.413 2009.84 982.195 2011.27 980.71 2012.97 979.523 2013.82 979.226 2017.23 979.226 2018.94 980.117 2020.64 982.195 2021.21 983.679 2021.49 985.46 2021.49 998.226 2018.37 998.226 2018.08 987.242 2017.52 984.273 2016.09 982.491 2014.39 982.195 2012.4 983.085 2011.27 984.57 2010.98 985.46 2010.7 991.398 2010.7 998.226 2007.57 998.226 2007.29 997.929 2007 984.867 2005.87 983.085 2005.3 982.491 2003.59 982.195 2001.61 983.085 2000.47 984.57 2000.19 985.163 1999.9 998.226 1996.49 998.226 1996.49 979.523 1999.33 979.523 1999.62 981.898 2001.04 980.413 2002.17 979.523Z" fill="#4472C4" fill-rule="evenodd"/><path d="M1973.89 979.226 1977.13 979.226 1978.74 980.117 1979.82 981.601 1980.36 982.195 1982.25 980.117 1983.87 979.226 1987.37 979.226 1989.26 980.413 1990.34 981.898 1991.15 983.976 1991.42 986.945 1991.42 998.226 1988.18 998.226 1987.91 985.46 1986.83 983.085 1984.95 982.195 1983.06 982.788 1981.71 984.273 1981.17 986.648 1980.9 998.226 1977.94 998.226 1977.67 985.46 1976.59 983.085 1974.97 982.195 1972.81 982.788 1971.46 984.57 1970.92 986.351 1970.65 998.226 1967.69 998.226 1967.42 979.523 1970.12 979.523 1970.65 981.601 1972.54 979.82Z" fill="#4472C4" fill-rule="evenodd"/><path d="M1952.81 979.219 1957.27 979.219 1960.05 980.658 1962 982.961 1963.12 986.128 1963.4 989.007 1962.56 993.037 1960.89 995.628 1958.66 997.355 1956.43 998.219 1953.09 998.219 1950.3 997.068 1948.07 995.052 1946.95 992.749 1946.4 990.734 1946.4 986.704 1947.23 983.825 1948.91 981.522 1951.14 979.795ZM1953.37 981.81 1951.69 982.961 1950.58 984.401 1949.74 986.704 1949.74 990.446 1950.86 993.325 1953.09 995.34 1955.59 995.628 1957.82 994.477 1959.5 991.886 1959.78 991.022 1959.78 986.416 1958.94 984.113 1957.82 982.674 1956.15 981.81Z" fill="#4472C4" fill-rule="evenodd"/><path d="M1808.67 979.219 1812.92 979.219 1815.47 980.37 1817.17 981.81 1818.87 985.265 1819.15 986.704 1819.15 990.446 1818.3 993.325 1816.6 995.916 1814.62 997.355 1812.07 998.219 1808.67 998.219 1805.84 997.068 1804.14 995.628 1802.44 992.174 1802.15 991.31 1802.15 986.128 1803.57 982.674 1804.99 981.234 1806.4 980.083ZM1809.24 981.81 1807.25 982.961 1805.84 985.265 1805.27 989.007 1805.84 991.886 1807.25 994.189 1808.95 995.34 1811.5 995.628 1813.2 994.765 1814.62 993.325 1815.75 990.446 1815.75 986.992 1814.62 983.825 1812.64 982.098 1812.07 981.81Z" fill="#4472C4" fill-rule="evenodd"/><path d="M2131.23 979.219 2135.48 979.219 2138.88 980.946 2140.58 983.249 2141.71 986.992 2141.71 989.871 2140.86 993.325 2139.16 995.628 2137.46 997.068 2134.91 998.219 2131.23 998.219 2128.4 997.068 2126.98 995.916 2125.28 993.325 2124.71 991.598 2124.71 985.84 2125.85 983.249 2127.55 980.946 2130.1 979.507ZM2131.8 981.81 2129.81 982.961 2128.4 985.265 2127.83 987.568 2128.11 991.31 2129.25 993.613 2130.95 995.052 2132.36 995.628 2134.63 995.34 2136.33 994.189 2137.46 992.749 2138.31 990.159 2138.31 987.28 2137.46 984.401 2135.76 982.386 2134.63 981.81Z" fill="#4472C4" fill-rule="evenodd"/><path d="M2092.51 979.219 2097.08 979.219 2099.37 980.37 2100.79 982.098 2101.37 983.537 2101.65 985.265 2101.65 997.643 2098.79 997.643 2098.79 995.916 2096.22 997.643 2094.51 998.219 2091.65 998.219 2089.37 997.068 2087.94 994.765 2087.65 992.174 2088.51 989.583 2089.94 988.143 2091.65 986.992 2095.08 986.128 2097.94 985.84 2097.94 984.113 2097.08 982.674 2095.94 982.098 2092.51 982.098 2089.65 982.961 2089.08 981.522 2089.37 980.37ZM2096.22 988.431 2093.65 989.007 2091.94 990.159 2091.08 991.598 2091.37 994.189 2092.51 995.34 2093.08 995.628 2095.08 995.628 2097.08 994.477 2098.22 993.037 2098.22 988.431Z" fill="#4472C4" fill-rule="evenodd"/><path d="M1919.45 979.219 1923.34 979.219 1926.12 980.658 1927.78 983.249 1928.34 985.265 1928.34 989.295 1916.4 989.295 1917.23 992.174 1918.34 993.901 1920.28 995.052 1924.73 995.052 1926.95 994.765 1927.51 996.492 1927.51 997.068 1924.17 998.219 1919.73 998.219 1917.23 997.068 1915.01 995.052 1913.62 992.174 1913.34 991.022 1913.34 986.704 1914.45 983.249 1916.95 980.37ZM1920.28 981.522 1918.62 982.386 1917.23 984.113 1916.67 985.552 1916.67 986.704 1921.67 986.992 1924.73 986.992 1925.28 986.704 1925.01 984.113 1923.34 982.098 1921.95 981.522Z" fill="#4472C4" fill-rule="evenodd"/><path d="M2282.07 979.219 2285.96 979.219 2288.18 980.37 2290.12 982.674 2290.96 985.265 2290.96 989.295 2279.01 989.295 2280.12 993.037 2282.07 994.765 2282.9 995.052 2287.34 995.052 2289.57 994.477 2290.12 997.068 2286.79 998.219 2282.62 998.219 2279.29 996.78 2277.9 995.628 2276.23 992.174 2275.96 990.734 2275.96 986.992 2277.07 983.249 2278.73 980.946 2281.23 979.507ZM2282.9 981.522 2281.23 982.386 2279.84 984.113 2279.01 986.704 2284.29 986.992 2287.62 986.992 2287.9 986.704 2287.62 984.113 2285.96 982.098 2284.57 981.522Z" fill="#4472C4" fill-rule="evenodd"/><path d="M1893.41 979.219 1897.3 979.219 1899.52 980.37 1900.91 981.81 1902.02 984.113 1902.3 985.265 1902.3 989.295 1890.35 989.295 1891.18 992.461 1892.57 994.189 1894.24 995.052 1898.68 995.052 1900.91 994.477 1901.46 997.068 1898.96 997.931 1897.85 998.219 1893.96 998.219 1890.63 996.78 1889.24 995.628 1887.57 992.174 1887.3 991.022 1887.3 986.992 1888.41 983.249 1890.91 980.37 1892.3 979.507ZM1894.24 981.522 1892.57 982.386 1891.18 984.113 1890.35 986.704 1894.24 986.992 1899.24 986.992 1898.96 984.113 1897.3 982.098 1895.91 981.522Z" fill="#4472C4" fill-rule="evenodd"/><path d="M1845.08 979.219 1849.65 979.219 1851.93 980.37 1853.36 982.098 1854.22 984.689 1854.22 997.643 1851.36 997.643 1851.36 995.916 1848.79 997.643 1847.08 998.219 1844.22 998.219 1841.93 996.78 1840.79 995.34 1840.22 992.749 1840.79 990.159 1842.79 987.856 1845.08 986.704 1847.93 986.128 1850.79 985.84 1850.22 983.537 1848.79 982.098 1845.08 982.098 1842.51 982.961 1841.65 981.234 1841.93 980.37ZM1849.08 988.431 1845.65 989.295 1844.22 990.446 1843.65 991.886 1843.93 993.901 1845.08 995.34 1847.65 995.628 1849.36 994.765 1850.79 993.037 1850.79 988.431Z" fill="#4472C4" fill-rule="evenodd"/><path d="M1769.66 979.219 1774.23 979.219 1776.52 980.37 1777.95 982.098 1778.8 984.977 1779.09 997.643 1775.95 997.643 1775.95 995.916 1772.8 997.931 1771.95 998.219 1768.8 998.219 1766.52 996.78 1765.37 995.34 1765.09 994.765 1765.09 991.022 1765.95 989.295 1767.95 987.568 1770.8 986.416 1775.37 985.84 1774.8 983.537 1773.37 982.098 1771.09 981.81 1767.95 982.674 1766.8 982.961 1766.23 980.658 1768.52 979.507ZM1773.66 988.431 1770.23 989.295 1768.8 990.446 1768.23 991.886 1768.52 994.189 1769.66 995.34 1772.23 995.628 1773.95 994.765 1775.09 993.325 1775.66 991.598 1775.37 988.431Z" fill="#4472C4" fill-rule="evenodd"/><path d="M2025.54 979.223 2029 979.223 2029.29 992.084 2030.44 994.423 2031.89 995.007 2034.48 994.715 2036.21 993.253 2036.79 992.377 2037.08 979.515 2037.37 979.223 2040.54 979.223 2040.54 997.638 2037.66 997.638 2037.37 995.592 2034.77 997.638 2033.33 998.223 2030.16 998.223 2027.85 997.053 2026.12 994.423 2025.54 992.377Z" fill="#4472C4" fill-rule="evenodd"/><path d="M2052.51 979.226 2056.12 979.226 2058.07 980.413 2059.73 982.491 2060.29 984.273 2060.57 986.945 2060.57 998.226 2057.23 998.226 2056.95 986.054 2056.12 983.679 2054.73 982.491 2053.07 982.195 2050.84 983.085 2049.45 985.46 2049.18 998.226 2045.84 998.226 2045.56 979.523 2048.62 979.523 2048.9 981.898 2051.12 979.82Z" fill="#4472C4" fill-rule="evenodd"/><path d="M1828.98 979.226 1832.66 979.226 1834.93 980.413 1836.34 982.195 1837.19 985.163 1837.19 998.226 1833.79 998.226 1833.51 985.163 1832.38 983.085 1830.4 982.195 1827.85 982.788 1826.44 984.57 1825.87 985.757 1825.59 998.226 1822.47 998.226 1822.19 996.742 1822.19 979.523 1825.02 979.523 1825.59 981.898 1827 980.413Z" fill="#4472C4" fill-rule="evenodd"/><path d="M2245.91 979.223 2249.31 979.223 2249.59 991.5 2250.44 993.838 2251.29 994.715 2252.14 995.007 2254.12 995.007 2256.1 993.838 2257.23 991.5 2257.51 979.223 2260.63 979.223 2260.91 979.515 2260.91 997.638 2258.08 997.638 2257.8 996.177 2258.08 995.3 2255.53 997.346 2253.84 998.223 2250.44 998.223 2248.18 996.761 2247.04 995.3 2246.19 992.961 2245.91 990.623Z" fill="#4472C4" fill-rule="evenodd"/><path d="M2187.89 979.226 2191.57 979.226 2193.83 980.71 2194.96 982.195 2195.81 985.163 2195.81 998.226 2192.41 998.226 2192.13 985.163 2191.28 983.382 2190.15 982.491 2188.45 982.195 2186.47 982.788 2185.06 984.57 2184.49 986.351 2184.21 998.226 2181.09 998.226 2180.81 979.523 2183.64 979.523 2184.21 981.898 2186.47 979.82Z" fill="#4472C4" fill-rule="evenodd"/><path d="M2152.17 979.226 2155.67 979.226 2157.83 980.413 2159.44 983.085 2159.71 983.976 2159.71 998.226 2156.75 998.226 2156.48 985.46 2155.4 983.085 2154.6 982.491 2152.98 982.195 2151.1 982.788 2149.48 984.867 2149.21 985.757 2148.94 998.226 2145.71 998.226 2145.71 979.523 2148.4 979.523 2148.67 981.898 2150.56 980.117Z" fill="#4472C4" fill-rule="evenodd"/><path d="M1871.51 972.219 1887.98 972.219 1888.25 972.515 1888.25 975.174 1881.61 975.469 1881.34 998.219 1878.42 998.219 1878.15 997.924 1878.15 975.469 1872.31 975.469 1871.25 975.174 1871.25 972.515Z" fill="#4472C4" fill-rule="evenodd"/><path d="M2237.72 974.216 2238.53 974.216 2238.53 979.421 2242.86 979.421 2242.86 982.023 2238.53 982.023 2238.8 993.3 2239.34 994.746 2241.78 995.035 2242.59 995.035 2242.59 997.927 2241.23 998.216 2238.53 998.216 2236.64 997.059 2235.56 994.746 2235.29 992.722 2235.29 982.023 2232.86 982.023 2232.86 979.421 2235.29 979.421 2235.29 975.083Z" fill="#4472C4" fill-rule="evenodd"/><path d="M2218.26 974.216 2219.15 974.216 2219.15 979.421 2223.61 979.421 2223.91 980.867 2223.61 982.023 2219.15 982.023 2219.45 993.878 2220.04 994.746 2222.72 995.035 2223.61 995.324 2223.61 997.927 2222.42 998.216 2219.15 998.216 2216.77 996.77 2215.88 995.035 2215.58 993.878 2215.58 982.023 2212.91 982.023 2212.91 979.421 2215.58 979.421 2215.58 975.083Z" fill="#4472C4" fill-rule="evenodd"/><path d="M1786.47 974.216 1787.37 974.216 1787.37 979.132 1791.82 979.421 1792.12 979.71 1792.12 981.734 1791.82 982.023 1787.37 982.023 1787.66 993.878 1788.26 994.746 1790.93 995.035 1791.82 995.324 1791.82 997.927 1790.34 998.216 1787.66 998.216 1785.28 997.059 1784.09 995.035 1783.8 993.878 1783.8 982.023 1781.12 982.023 1781.12 979.421 1783.8 979.421 1783.8 975.083Z" fill="#4472C4" fill-rule="evenodd"/><path d="M1937.99 979.219 1942.5 979.219 1944.35 980.083 1943.82 982.674 1941.44 982.098 1939.31 982.098 1937.19 982.961 1935.86 984.401 1935.07 986.128 1934.8 987.28 1934.8 990.159 1935.86 993.037 1937.46 994.477 1938.78 995.052 1941.7 995.052 1943.82 994.477 1944.35 997.068 1942.5 997.931 1941.7 998.219 1937.72 998.219 1935.07 997.068 1933.21 995.34 1931.62 991.886 1931.35 990.159 1931.35 987.28 1932.15 984.401 1933.48 982.098 1935.33 980.37Z" fill="#4472C4" fill-rule="evenodd"/><path d="M2204.09 979.219 2208.38 979.219 2209.99 980.083 2209.72 982.098 2209.45 982.674 2207.57 982.098 2204.89 982.098 2203.55 983.537 2203.82 985.265 2205.97 986.704 2208.92 988.431 2210.53 990.446 2210.79 991.31 2210.79 993.901 2209.72 996.204 2208.38 997.355 2206.23 998.219 2202.75 998.219 2200.06 997.068 2199.79 996.492 2200.6 994.477 2201.94 994.765 2203.82 995.34 2206.23 995.052 2207.57 993.613 2207.31 991.598 2205.97 990.446 2202.21 988.431 2200.6 986.416 2200.33 985.552 2200.33 983.249 2201.4 980.946 2203.28 979.507Z" fill="#4472C4" fill-rule="evenodd"/><path d="M2079.22 979.219 2083.73 979.219 2085.58 980.083 2085.05 982.674 2082.13 982.098 2079.22 982.386 2077.09 984.113 2076.03 986.992 2076.03 990.446 2076.83 992.749 2078.69 994.477 2080.01 995.052 2082.93 995.052 2084.79 994.477 2085.58 997.068 2083.46 997.931 2082.4 998.219 2079.22 998.219 2076.3 997.068 2074.18 995.052 2073.11 992.749 2072.58 990.734 2072.58 986.992 2073.64 983.825 2074.71 982.098 2076.56 980.37Z" fill="#4472C4" fill-rule="evenodd"/><path d="M2269.04 974.216 2269.58 974.216 2269.58 979.421 2273.91 979.421 2273.91 982.023 2269.58 982.023 2269.85 992.722 2270.67 994.746 2271.21 995.035 2273.64 995.035 2273.91 997.349 2272.83 998.216 2269.85 998.216 2268.23 997.349 2267.15 995.903 2266.61 994.457 2266.61 982.023 2263.91 982.023 2263.91 979.421 2266.61 979.421 2266.61 975.083Z" fill="#4472C4" fill-rule="evenodd"/><path d="M2109.36 974.216 2109.95 974.216 2109.95 979.421 2114.71 979.421 2114.71 982.023 2109.95 982.023 2110.25 992.433 2110.84 994.457 2112.03 995.035 2114.41 995.035 2114.71 995.613 2114.71 997.638 2113.22 998.216 2110.25 998.216 2107.87 996.77 2106.98 995.035 2106.68 993.878 2106.68 982.023 2104.01 982.023 2103.71 981.734 2103.71 979.421 2106.68 979.421 2106.68 975.083Z" fill="#4472C4" fill-rule="evenodd"/><path d="M1859.21 971.217 1862.21 971.217 1862.21 998.217 1859.21 998.217Z" fill="#4472C4" fill-rule="evenodd"/><path d="M2172.94 972.219 2175.69 972.515 2175.69 998.219 2172.69 998.219 2172.69 972.515Z" fill="#4472C4" fill-rule="evenodd"/><path d="M1906.29 971.217 1909.04 971.217 1909.29 971.804 1909.29 998.217 1906.29 998.217Z" fill="#4472C4" fill-rule="evenodd"/><path d="M2226.77 979.23 2229.77 979.23 2229.77 998.23 2226.77 998.23Z" fill="#4472C4" fill-rule="evenodd"/><path d="M1795.12 979.23 1798.12 979.23 1798.12 998.23 1795.12 998.23Z" fill="#4472C4" fill-rule="evenodd"/><path d="M2117.86 979.23 2120.61 979.23 2120.61 998.23 2117.86 998.23 2117.61 997.024 2117.61 979.531Z" fill="#4472C4" fill-rule="evenodd"/><path d="M2065.58 979.23 2068.58 979.23 2068.58 998.23 2065.58 998.23Z" fill="#4472C4" fill-rule="evenodd"/><path d="M1921.54 845.103 1923.89 845.103 1925.36 846.194 1925.07 848.376 1923.89 850.012 1915.95 854.103 1915.36 854.103 1916.25 851.649 1918.6 847.012 1920.66 845.376Z" fill="#4472C4" fill-rule="evenodd"/><path d="M2228.04 972.247 2230.04 972.581 2231.04 974.247 2230.7 976.247 2229.37 977.247 2227.04 976.914 2226.04 975.581 2226.37 973.247Z" fill="#4472C4" fill-rule="evenodd"/><path d="M1796.16 972.247 1798.16 972.581 1799.16 974.247 1798.82 976.247 1797.49 977.247 1795.16 976.914 1794.16 975.581 1794.49 973.247Z" fill="#4472C4" fill-rule="evenodd"/><path d="M2066.16 972.247 2067.76 972.581 2068.57 973.58 2068.57 975.914 2067.23 977.247 2065.36 976.914 2064.56 975.247 2064.83 973.58Z" fill="#4472C4" fill-rule="evenodd"/><path d="M2119.13 972.247 2121.13 972.581 2121.7 973.58 2121.7 975.914 2120.55 977.247 2118.84 977.247 2117.7 975.914 2117.7 973.914Z" fill="#4472C4" fill-rule="evenodd"/></g></svg>